<svg id="Group_8" data-name="Group 8" xmlns="http://www.w3.org/2000/svg" xmlns:xlink="http://www.w3.org/1999/xlink" width="12.198" height="24.204" viewBox="0 0 12.198 24.204">
  <defs>
    <clipPath id="clip-path">
      <rect id="Rectangle_41" data-name="Rectangle 41" width="12.198" height="24.204" fill="#fff"/>
    </clipPath>
  </defs>
  <g id="Group_7" data-name="Group 7" clip-path="url(#clip-path)">
    <path id="Path_46" data-name="Path 46" d="M11.961,0a1.814,1.814,0,0,1,.219.567c.021,1.111,0,2.222.017,3.333.007.432-.181.57-.58.562q-.994-.019-1.989,0c-.987.019-1.322.362-1.324,1.333,0,.767,0,1.534,0,2.366,1.078,0,2.112,0,3.145,0,.72,0,.8.093.717.816-.135,1.137-.289,2.272-.4,3.412-.042.42-.235.545-.627.539-.913-.015-1.826,0-2.832,0v.636q0,4.946,0,9.891c0,.681-.067.751-.727.752q-1.908,0-3.817,0c-.66,0-.728-.072-.728-.751q0-4.946,0-9.891v-.674H.777c-.749,0-.77-.021-.771-.744,0-1.129.013-2.258-.007-3.387-.008-.438.143-.614.591-.6.837.023,1.674.007,2.57.007A25.364,25.364,0,0,0,3.143,5.27C2.83,2.605,4.866.548,7.467.1,7.6.079,7.738.035,7.873,0Z" transform="translate(0.001)" fill="#fff"/>
  </g>
</svg>
