<svg id="Group_6" data-name="Group 6" xmlns="http://www.w3.org/2000/svg" xmlns:xlink="http://www.w3.org/1999/xlink" width="24.866" height="24.866" viewBox="0 0 24.866 24.866">
  <defs>
    <clipPath id="clip-path">
      <rect id="Rectangle_40" data-name="Rectangle 40" width="24.866" height="24.866" transform="translate(0 0)" fill="none"/>
    </clipPath>
  </defs>
  <g id="Group_5" data-name="Group 5" transform="translate(0 0)" clip-path="url(#clip-path)">
    <path id="Path_43" data-name="Path 43" d="M0,17.613V7.252a5.8,5.8,0,0,0,.1-.59A6.594,6.594,0,0,1,5.694.246C6.209.14,6.733.081,7.253,0H17.613A5.8,5.8,0,0,0,18.2.1,6.6,6.6,0,0,1,24.62,5.694c.106.514.165,1.038.246,1.558V17.613a5.73,5.73,0,0,0-.1.586,6.6,6.6,0,0,1-5.591,6.421c-.515.106-1.039.165-1.559.246H7.253a5.8,5.8,0,0,0-.59-.1A6.6,6.6,0,0,1,.246,19.171C.14,18.657.081,18.133,0,17.613m22.5-5.174h.157c-.056-1.9-.055-3.8-.183-5.69a4.268,4.268,0,0,0-4.379-4.34q-5.662-.158-11.332,0A4.2,4.2,0,0,0,2.409,6.761q-.161,5.662,0,11.331A4.219,4.219,0,0,0,6.8,22.462c3.706.108,7.419.118,11.125.009,2.82-.082,4.4-1.7,4.553-4.5.1-1.84.019-3.691.019-5.536" transform="translate(0 0)" fill="#fff"/>
    <path id="Path_44" data-name="Path 44" d="M31.233,24.82a6.407,6.407,0,1,1-6.413,6.374,6.42,6.42,0,0,1,6.413-6.374m-.018,2.28a4.127,4.127,0,1,0,4.139,4.141A4.137,4.137,0,0,0,31.214,27.1" transform="translate(-18.794 -18.794)" fill="#fff"/>
    <path id="Path_45" data-name="Path 45" d="M73.842,20.68a1.446,1.446,0,0,1-1.5-1.488,1.5,1.5,0,0,1,3,0,1.427,1.427,0,0,1-1.5,1.484" transform="translate(-54.776 -13.41)" fill="#fff"/>
  </g>
</svg>
