<svg id="Group_10" data-name="Group 10" xmlns="http://www.w3.org/2000/svg" xmlns:xlink="http://www.w3.org/1999/xlink" width="21.778" height="17.849" viewBox="0 0 21.778 17.849">
  <defs>
    <clipPath id="clip-path">
      <rect id="Rectangle_42" data-name="Rectangle 42" width="21.778" height="17.848" fill="#fff"/>
    </clipPath>
  </defs>
  <g id="Group_9" data-name="Group 9" clip-path="url(#clip-path)">
    <path id="Path_47" data-name="Path 47" d="M21.778,2.206v.388c-.6.643-1.182,1.305-1.811,1.919a.941.941,0,0,0-.347.729,12.822,12.822,0,0,1-3.038,8.222,12,12,0,0,1-9.61,4.385A12.3,12.3,0,0,1,.323,15.956c-.149-.092-.217-.314-.323-.475.187-.074.378-.223.559-.211A8.588,8.588,0,0,0,5.28,14.31c.143-.077.279-.167.491-.295a4.7,4.7,0,0,1-3.283-2.828c-.232-.568-.157-.7.423-.8,0-.015,0-.036-.01-.043-.076-.06-.154-.116-.23-.177A4.653,4.653,0,0,1,.855,6.88c-.083-.846.038-.922.818-.619a.965.965,0,0,0,.185.032c0-.041,0-.06-.005-.071-.053-.08-.111-.157-.163-.238a4.615,4.615,0,0,1-.367-4.646c.3-.665.5-.685.98-.128A11.572,11.572,0,0,0,7.631,4.749c.843.27,1.726.415,2.611.622.02-.18.032-.227.03-.273A4.505,4.505,0,0,1,12.84.542,4.53,4.53,0,0,1,18,1.152a.688.688,0,0,0,.555.108C19.2,1.033,19.833.746,20.479.5a2.516,2.516,0,0,1,.576-.076,1.554,1.554,0,0,1,.014.614c-.2.46-.457.892-.723,1.391a3.325,3.325,0,0,1,.626-.218,6.168,6.168,0,0,1,.806-.008" transform="translate(0 0)" fill="#fff"/>
  </g>
</svg>
