<svg id="Group_14" data-name="Group 14" xmlns="http://www.w3.org/2000/svg" xmlns:xlink="http://www.w3.org/1999/xlink" width="25.856" height="18.174" viewBox="0 0 25.856 18.174">
  <defs>
    <clipPath id="clip-path">
      <rect id="Rectangle_44" data-name="Rectangle 44" width="25.856" height="18.174" fill="#fff"/>
    </clipPath>
  </defs>
  <g id="Group_13" data-name="Group 13" clip-path="url(#clip-path)">
    <path id="Path_49" data-name="Path 49" d="M0,12.368V4.95c.033-.333.063-.667.1-1A4.9,4.9,0,0,1,.676,2.01,3.667,3.667,0,0,1,3.139.361,13.674,13.674,0,0,1,6.518.006Q12.425,0,18.333,0c.807,0,1.616.017,2.421.063a8.89,8.89,0,0,1,2.569.479,3.319,3.319,0,0,1,2.148,2.174,8.757,8.757,0,0,1,.363,2.662c.018,2.194.039,4.39,0,6.583a14.157,14.157,0,0,1-.3,2.572,3.962,3.962,0,0,1-2.954,3.241,10.594,10.594,0,0,1-2.891.384c-4.258.016-8.516.012-12.774.013a12.183,12.183,0,0,1-3.445-.408,4.189,4.189,0,0,1-2.779-2.2A6.782,6.782,0,0,1,.1,13.316C.067,13,.034,12.684,0,12.368m9.953-3.4c0,.9,0,1.8,0,2.7a.848.848,0,0,0,1.334.816q2.594-1.348,5.184-2.7a.859.859,0,0,0,.006-1.614c-1.731-.894-3.459-1.8-5.19-2.691a.852.852,0,0,0-1.334.819c0,.891,0,1.782,0,2.673" transform="translate(0 0)" fill="#fff"/>
  </g>
</svg>
