<svg id="Group_12" data-name="Group 12" xmlns="http://www.w3.org/2000/svg" xmlns:xlink="http://www.w3.org/1999/xlink" width="17.305" height="20.203" viewBox="0 0 17.305 20.203">
  <defs>
    <clipPath id="clip-path">
      <rect id="Rectangle_43" data-name="Rectangle 43" width="17.305" height="20.202" fill="#fff"/>
    </clipPath>
  </defs>
  <g id="Group_11" data-name="Group 11" clip-path="url(#clip-path)">
    <path id="Path_48" data-name="Path 48" d="M17.306,7.92a4.828,4.828,0,0,1-2.835-.4c-.612-.243-1.195-.561-1.83-.865v.42c0,1.862.021,3.724-.006,5.585a7.588,7.588,0,0,1-2.292,5.748,5.786,5.786,0,0,1-6.307,1.375A6.048,6.048,0,0,1,.052,14.453,6.126,6.126,0,0,1,1.567,9.475a6.836,6.836,0,0,1,4.3-2.141c.353-.052.711-.072,1.095-.11.015.148.035.254.035.36C7,8.473,6.99,9.362,7,10.251c0,.264-.061.379-.351.439a9.958,9.958,0,0,0-1.63.473A2.55,2.55,0,0,0,3.2,13.6,2.922,2.922,0,0,0,4.8,16.4,2.806,2.806,0,0,0,9.033,14.6a6.885,6.885,0,0,0,.25-1.847C9.29,8.665,9.266,4.581,9.25.5c0-.166-.017-.332-.025-.5h3.333c.029.149.065.3.087.448a4.715,4.715,0,0,0,4.662,4.3Z" transform="translate(-0.001)" fill="#fff"/>
  </g>
</svg>
